<?xml version="1.0" encoding="UTF-8"?>
<svg id="uuid-87d1cddf-b8d2-42f5-97c6-fd5708bbffa4" data-name="Ebene 1" xmlns="http://www.w3.org/2000/svg" width="105" height="105" viewBox="0 0 105 105">
  <defs>
    <style>
      .uuid-490a224b-55d8-4c6d-bc23-10e4c78d5116 {
        fill: #e4e8ec;
      }

      .uuid-9c8f1ac6-c197-4f03-a215-04cf43eb3207 {
        fill: #ff8200;
      }

      .uuid-3b7943d5-6e05-4acc-9b36-678ba40fd35e {
        fill: #717e85;
      }
    </style>
  </defs>
  <circle id="uuid-9131a9c4-3744-48f2-89ec-b572de464973" data-name="Ellipse 118" class="uuid-490a224b-55d8-4c6d-bc23-10e4c78d5116" cx="52.5" cy="52.5" r="52.5"/>
  <g>
    <path class="uuid-9c8f1ac6-c197-4f03-a215-04cf43eb3207" d="m79.7188,51.8213l-11.3041-4.2361v-12.6967c0-1.7553-1.0883-3.3234-2.7383-3.9436l-11.702-4.3882c-.9596-.3628-2.001-.3628-2.9606,0l-11.702,4.3882c-1.65.6202-2.7383,2.1883-2.7383,3.9436v12.6967l-11.3041,4.2361c-1.6383.6202-2.7266,2.1883-2.7266,3.9436v12.8839c0,1.5915.9011,3.0542,2.3287,3.768l11.702,5.851c1.1819.5968,2.5861.5968,3.768,0l12.1584-6.085,12.1584,6.085c1.1819.5968,2.5861.5968,3.768,0l11.702-5.851c1.4276-.7138,2.3287-2.1766,2.3287-3.768v-12.8839c0-1.7553-1.0883-3.3234-2.7383-3.9436Zm-29.3252,16.9679l-9.9467,4.9733v-9.2563l9.9467-4.5404v8.8233Zm0-13.1062l-11.936,4.8446-11.936-4.8446v-.0702l11.936-4.4702,11.936,4.4702v.0702Zm-9.8297-20.888v-.0702l11.936-4.4702,11.936,4.4702v.0702l-11.936,4.8446-11.936-4.8446Zm13.9254,8.6361l9.9467-4.3297v8.5776l-9.9467,3.7329v-7.9808Zm23.9891,25.3582l-9.9467,4.9733v-9.2563l9.9467-4.5404v8.8233Zm0-13.1062l-11.936,4.8446-11.936-4.8446v-.0702l11.936-4.4702,11.936,4.4702v.0702Z"/>
    <path class="uuid-3b7943d5-6e05-4acc-9b36-678ba40fd35e" d="m40.447,73.7625l9.9467-4.9733v-8.8233l-9.9467,4.5404v9.2563Zm28.0848-9.2563v9.2563l9.9467-4.9733v-8.8233l-9.9467,4.5404Zm-14.0424-13.0945l9.9467-3.7329v-8.5776l-9.9467,4.3297v7.9808Z"/>
  </g>
</svg>